<?xml version="1.0" encoding="utf-8"?>
<!-- Generator: Adobe Illustrator 24.1.2, SVG Export Plug-In . SVG Version: 6.00 Build 0)  -->
<svg version="1.1" id="Layer_1" xmlns="http://www.w3.org/2000/svg" xmlns:xlink="http://www.w3.org/1999/xlink" x="0px" y="0px"
	 width="500px" height="500px" viewBox="0 0 500 500" style="enable-background:new 0 0 500 500;" xml:space="preserve">
<style type="text/css">
	.st0{fill:#303030;stroke:#303030;stroke-width:2;stroke-miterlimit:10;}
	.st1{fill:#FFFFFF;stroke:#FFFFFF;stroke-width:2;stroke-miterlimit:10;}
</style>
<g>
	<rect x="133.9" y="133.9" class="st0" width="83.8" height="18.2"/>
	<rect x="302.4" y="133.9" class="st0" width="83.8" height="18.2"/>
	<rect x="368" y="133.9" class="st0" width="18.2" height="83.8"/>
	<rect x="368" y="302.4" class="st0" width="18.2" height="83.8"/>
	<rect x="302.4" y="368" class="st0" width="83.8" height="18.2"/>
	<rect x="133.9" y="368" class="st0" width="83.8" height="18.2"/>
	<rect x="133.9" y="302.4" class="st0" width="18.2" height="83.8"/>
	<rect x="133.9" y="133.9" class="st0" width="18.2" height="83.8"/>
</g>
<g>
	<rect x="123.9" y="123.9" class="st1" width="83.8" height="18.2"/>
	<rect x="292.4" y="123.9" class="st1" width="83.8" height="18.2"/>
	<rect x="358" y="123.9" class="st1" width="18.2" height="83.8"/>
	<rect x="358" y="292.4" class="st1" width="18.2" height="83.8"/>
	<rect x="292.4" y="358" class="st1" width="83.8" height="18.2"/>
	<rect x="123.9" y="358" class="st1" width="83.8" height="18.2"/>
	<rect x="123.9" y="292.4" class="st1" width="18.2" height="83.8"/>
	<rect x="123.9" y="123.9" class="st1" width="18.2" height="83.8"/>
</g>
</svg>
