<?xml version="1.0" encoding="utf-8"?>
<!-- Generator: Adobe Illustrator 24.1.2, SVG Export Plug-In . SVG Version: 6.00 Build 0)  -->
<svg version="1.1" id="Layer_1" xmlns="http://www.w3.org/2000/svg" xmlns:xlink="http://www.w3.org/1999/xlink" x="0px" y="0px"
	 width="500px" height="500px" viewBox="0 0 500 500" style="enable-background:new 0 0 500 500;" xml:space="preserve">
<style type="text/css">
	.st0{enable-background:new    ;}
	.st1{fill:#303030;}
	.st2{fill:#FFFFFF;}
</style>
<g id="Layer_1_1_">
	<g class="st0">
		<path class="st1" d="M189.1,183c3.6-10.3,8.8-19.2,15.5-26.7c6.7-7.6,15-13.5,24.8-17.6c9.8-4.2,20.7-6.3,32.8-6.3
			c10.9,0,20.9,1.5,29.9,4.7c9,3.2,16.7,7.7,23.2,13.6c6.5,5.9,11.6,13.2,15.2,21.8c3.6,8.6,5.4,18.5,5.4,29.7
			c0,7.2-0.9,13.7-2.6,19.4c-1.8,5.7-4,10.9-6.8,15.5c-2.8,4.6-6,9-9.6,12.9c-3.6,4-7.2,7.8-10.9,11.5c-3.7,3.5-7.4,7.1-11,10.7
			c-3.6,3.6-6.9,7.5-9.8,11.5c-2.9,4.1-5.2,8.5-7,13.3c-1.8,4.8-2.6,10.2-2.6,16.2v13.6h-29.7v-16.4c0.5-9.8,2.3-18.1,5.4-25
			c3.2-6.9,7-13,11.5-18.3s9.3-10.3,14.3-14.8c5-4.5,9.7-9.3,14-14.3c4.3-5,7.7-10.5,10.3-16.6c2.6-6,3.6-13.4,3.2-22
			c-0.9-12.8-5.1-22.8-12.4-30.1c-7.4-7.3-17.3-10.9-29.9-10.9c-8.4,0-15.6,1.5-21.7,4.5c-6,3-11.1,7.1-15.2,12.2
			c-4.1,5.1-7.1,11.2-8.9,18.2c-1.9,7-2.8,14.6-2.8,22.7H184C183.8,204.3,185.5,193.2,189.1,183z M279.8,348.9v38.8H241v-38.8H279.8
			z"/>
	</g>
</g>
<g id="Layer_1_2_">
	<g class="st0">
		<path class="st2" d="M179.2,173c3.6-10.3,8.8-19.2,15.5-26.7c6.7-7.6,15-13.5,24.8-17.6c9.8-4.2,20.7-6.3,32.8-6.3
			c10.9,0,20.9,1.5,29.9,4.7c9,3.2,16.7,7.7,23.2,13.6c6.5,5.9,11.6,13.2,15.2,21.8c3.6,8.6,5.4,18.5,5.4,29.7
			c0,7.2-0.9,13.7-2.6,19.4c-1.8,5.7-4,10.9-6.8,15.5c-2.8,4.6-6,9-9.6,12.9c-3.6,4-7.2,7.8-10.9,11.5c-3.7,3.5-7.4,7.1-11,10.7
			c-3.6,3.6-6.9,7.5-9.8,11.5c-2.9,4.1-5.2,8.5-7,13.3c-1.8,4.8-2.6,10.2-2.6,16.2v13.6H236v-16.4c0.5-9.8,2.3-18.1,5.4-25
			c3.2-6.9,7-13,11.5-18.3s9.3-10.3,14.3-14.8s9.7-9.3,14-14.3c4.3-5,7.7-10.5,10.3-16.6c2.6-6,3.6-13.4,3.2-22
			c-0.9-12.8-5.1-22.8-12.4-30.1c-7.4-7.3-17.3-10.9-29.9-10.9c-8.4,0-15.6,1.5-21.7,4.5c-6,3-11.1,7.1-15.2,12.2
			c-4.1,5.1-7.1,11.2-8.9,18.2c-1.9,7-2.8,14.6-2.8,22.7h-29.7C173.9,194.3,175.6,183.2,179.2,173z M269.8,338.9v38.8h-38.8v-38.8
			H269.8z"/>
	</g>
</g>
</svg>
