<?xml version="1.0" encoding="utf-8"?>
<!-- Generator: Adobe Illustrator 24.1.2, SVG Export Plug-In . SVG Version: 6.00 Build 0)  -->
<svg version="1.1" id="bold" xmlns="http://www.w3.org/2000/svg" xmlns:xlink="http://www.w3.org/1999/xlink" x="0px" y="0px"
	 width="500px" height="500px" viewBox="0 0 500 500" style="enable-background:new 0 0 500 500;" xml:space="preserve">
<style type="text/css">
	.st0{fill:#303030;}
	.st1{fill:#FFFFFF;}
</style>
<g>
	<path class="st0" d="M145.1,367.6c-1.3,0-2.5-0.2-3.7-0.7c-3.5-1.5-5.9-5-5.9-8.8v-64.9c0-5.3,4.3-9.5,9.5-9.5h64.8
		c3.9,0,7.4,2.3,8.8,5.9c1.5,3.6,0.7,7.6-2.1,10.3l-64.8,64.9C150,366.6,147.5,367.6,145.1,367.6z"/>
	<path class="st0" d="M260.7,386.1c-33.2,0-64.4-12.8-87.9-36.2c-5.5-5.5-5.6-14.5-0.1-20.1c2.7-2.7,6.2-4.2,10-4.2
		c3.8,0,7.3,1.5,10,4.1c18.1,18,42.3,27.9,68,27.9c45.1,0,83.8-30.7,94.3-74.6c1.5-6.4,7.2-10.9,13.8-10.9c1.1,0,2.2,0.1,3.3,0.4
		c3.7,0.9,6.8,3.1,8.8,6.3c2,3.2,2.6,7,1.7,10.8C369.2,346.5,319,386.1,260.7,386.1z"/>
	<path class="st0" d="M374.9,152.4c1.3,0,2.5,0.2,3.7,0.7c3.5,1.5,5.9,5,5.9,8.8v64.9c0,5.3-4.3,9.5-9.5,9.5h-64.8
		c-3.9,0-7.4-2.3-8.8-5.9c-1.5-3.6-0.7-7.6,2.1-10.3l64.8-64.9C370,153.4,372.5,152.4,374.9,152.4z"/>
	<path class="st0" d="M259.3,133.9c33.2,0,64.4,12.8,87.9,36.2c5.5,5.5,5.6,14.5,0.1,20.1c-2.7,2.7-6.2,4.2-10,4.2
		c-3.8,0-7.3-1.5-10-4.1c-18.1-18-42.3-27.9-68-27.9c-45.1,0-83.8,30.7-94.3,74.6c-1.5,6.4-7.2,10.9-13.8,10.9
		c-1.1,0-2.2-0.1-3.3-0.4c-3.7-0.9-6.8-3.1-8.8-6.3c-2-3.2-2.6-7-1.7-10.8C150.8,173.5,201,133.9,259.3,133.9z"/>
</g>
<g>
	<path class="st1" d="M135.1,357.6c-1.3,0-2.5-0.2-3.7-0.7c-3.5-1.5-5.9-5-5.9-8.8v-64.9c0-5.3,4.3-9.5,9.5-9.5h64.8
		c3.9,0,7.4,2.3,8.8,5.9c1.5,3.6,0.7,7.6-2.1,10.3l-64.8,64.9C140,356.6,137.5,357.6,135.1,357.6z"/>
	<path class="st1" d="M250.7,376.1c-33.2,0-64.4-12.8-87.9-36.2c-5.5-5.5-5.6-14.5-0.1-20.1c2.7-2.7,6.2-4.2,10-4.2
		c3.8,0,7.3,1.5,10,4.1c18.1,18,42.3,27.9,68,27.9c45.1,0,83.8-30.7,94.3-74.6c1.5-6.4,7.2-10.9,13.8-10.9c1.1,0,2.2,0.1,3.3,0.4
		c3.7,0.9,6.8,3.1,8.8,6.3c2,3.2,2.6,7,1.7,10.8C359.2,336.5,309,376.1,250.7,376.1z"/>
	<path class="st1" d="M364.9,142.4c1.3,0,2.5,0.2,3.7,0.7c3.5,1.5,5.9,5,5.9,8.8v64.9c0,5.3-4.3,9.5-9.5,9.5h-64.8
		c-3.9,0-7.4-2.3-8.8-5.9c-1.5-3.6-0.7-7.6,2.1-10.3l64.8-64.9C360,143.4,362.5,142.4,364.9,142.4z"/>
	<path class="st1" d="M249.3,123.9c33.2,0,64.4,12.8,87.9,36.2c5.5,5.5,5.6,14.5,0.1,20.1c-2.7,2.7-6.2,4.2-10,4.2
		c-3.8,0-7.3-1.5-10-4.1c-18.1-18-42.3-27.9-68-27.9c-45.1,0-83.8,30.7-94.3,74.6c-1.5,6.4-7.2,10.9-13.8,10.9
		c-1.1,0-2.2-0.1-3.3-0.4c-3.7-0.9-6.8-3.1-8.8-6.3c-2-3.2-2.6-7-1.7-10.8C140.8,163.5,191,123.9,249.3,123.9z"/>
</g>
</svg>
