<?xml version="1.0" encoding="utf-8"?>
<!-- Generator: Adobe Illustrator 24.1.2, SVG Export Plug-In . SVG Version: 6.00 Build 0)  -->
<svg version="1.1" id="Layer_1" xmlns="http://www.w3.org/2000/svg" xmlns:xlink="http://www.w3.org/1999/xlink" x="0px" y="0px"
	 width="500px" height="500px" viewBox="0 0 500 500" style="enable-background:new 0 0 500 500;" xml:space="preserve">
<style type="text/css">
	.st0{fill:#303030;stroke:#FFFFFF;stroke-width:0.75;stroke-miterlimit:10;}
	.st1{fill:#FFFFFF;stroke:#FFFFFF;stroke-width:0.75;stroke-miterlimit:10;}
</style>
<g>
	<path class="st0" d="M122.3,170.2l51.6,152.9l51-152.9h27.3l-65.5,179.6h-25.8L95.4,170.2H122.3z"/>
	<path class="st0" d="M278,170.2h81.6c13.4,0,24.5,2,33.2,6c16.6,7.7,24.8,21.8,24.8,42.4c0,10.8-2.2,19.6-6.7,26.4
		c-4.4,6.8-10.7,12.3-18.6,16.5c7,2.9,12.3,6.6,15.8,11.2c3.5,4.6,5.5,12.2,5.9,22.6l0.9,24.1c0.2,6.8,0.8,11.9,1.7,15.3
		c1.5,5.7,4.1,9.4,7.8,11v4h-29.8c-0.8-1.5-1.5-3.5-2-6c-0.5-2.4-0.9-7.2-1.2-14.2l-1.5-29.9c-0.6-11.7-4.8-19.6-12.7-23.6
		c-4.5-2.2-11.6-3.3-21.3-3.3h-53.8v77H278V170.2z M357,252.5c11.1,0,19.9-2.3,26.3-6.8c6.5-4.6,9.7-12.8,9.7-24.7
		c0-12.8-4.5-21.5-13.6-26.2c-4.8-2.4-11.3-3.7-19.4-3.7h-57.8v61.4H357z"/>
</g>
<g>
	<path class="st1" d="M112.3,160.2l51.6,152.9l51-152.9h27.3l-65.5,179.6h-25.8L85.4,160.2H112.3z"/>
	<path class="st1" d="M268,160.2h81.6c13.4,0,24.5,2,33.2,6c16.6,7.7,24.8,21.8,24.8,42.4c0,10.8-2.2,19.6-6.7,26.4
		c-4.4,6.8-10.7,12.3-18.6,16.5c7,2.9,12.3,6.6,15.8,11.2c3.5,4.6,5.5,12.2,5.9,22.6l0.9,24.1c0.2,6.8,0.8,11.9,1.7,15.3
		c1.5,5.7,4.1,9.4,7.8,11v4h-29.8c-0.8-1.5-1.5-3.5-2-6c-0.5-2.4-0.9-7.2-1.2-14.2l-1.5-29.9c-0.6-11.7-4.8-19.6-12.7-23.6
		c-4.5-2.2-11.6-3.3-21.3-3.3h-53.8v77H268V160.2z M347,242.5c11.1,0,19.9-2.3,26.3-6.8c6.5-4.6,9.7-12.8,9.7-24.7
		c0-12.8-4.5-21.5-13.6-26.2c-4.8-2.4-11.3-3.7-19.4-3.7h-57.8v61.4H347z"/>
</g>
</svg>
